<svg width="40" height="47" viewBox="0 0 40 47" fill="none" xmlns="http://www.w3.org/2000/svg">
<mask id="mask0_97_1895" style="mask-type:luminance" maskUnits="userSpaceOnUse" x="0" y="0" width="32" height="42">
<path d="M0 0H31.5V42H0V0Z" fill="white"/>
</mask>
<g mask="url(#mask0_97_1895)">
<path opacity="0.3" d="M26.665 9.402C25.6209 9.40121 24.6198 8.98623 23.8813 8.24813C23.1428 7.51002 22.7273 6.5091 22.726 5.465V8.76079e-07H5.14C4.46515 -0.000393237 3.79683 0.132188 3.17323 0.39017C2.54964 0.648152 1.98299 1.02648 1.50565 1.50353C1.02832 1.98059 0.649664 2.54702 0.391318 3.17046C0.132972 3.79391 -1.15081e-07 4.46215 0 5.137V36.105C-1.27835e-08 36.7797 0.132906 37.4478 0.391127 38.0711C0.649348 38.6944 1.02783 39.2607 1.50495 39.7378C1.98207 40.2148 2.54848 40.5932 3.17185 40.8513C3.79521 41.1094 4.46331 41.2421 5.138 41.242H26.251C26.9256 41.242 27.5936 41.1091 28.2168 40.851C28.8401 40.5928 29.4064 40.2144 29.8834 39.7374C30.3604 39.2604 30.7388 38.6941 30.997 38.0708C31.2551 37.4476 31.388 36.7796 31.388 36.105V9.402H26.664H26.665Z" fill="#3EA0E6"/>
<path d="M31.3898 9.402H26.6648C25.6207 9.40121 24.6196 8.98623 23.8811 8.24812C23.1426 7.51002 22.7271 6.5091 22.7258 5.465V0L31.3898 9.402ZM24.9328 15.984H5.22281C5.03972 15.9743 4.86732 15.8948 4.74115 15.7617C4.61498 15.6287 4.54464 15.4523 4.54464 15.269C4.54464 15.0857 4.61498 14.9093 4.74115 14.7763C4.86732 14.6432 5.03972 14.5637 5.22281 14.554H24.9328C25.1159 14.5637 25.2883 14.6432 25.4145 14.7763C25.5406 14.9093 25.611 15.0857 25.611 15.269C25.611 15.4523 25.5406 15.6287 25.4145 15.7617C25.2883 15.8948 25.1159 15.9743 24.9328 15.984ZM24.9328 20.255H5.22281C5.03972 20.2453 4.86732 20.1658 4.74115 20.0327C4.61498 19.8997 4.54464 19.7233 4.54464 19.54C4.54464 19.3567 4.61498 19.1803 4.74115 19.0473C4.86732 18.9142 5.03972 18.8347 5.22281 18.825H24.9328C25.1159 18.8347 25.2883 18.9142 25.4145 19.0473C25.5406 19.1803 25.611 19.3567 25.611 19.54C25.611 19.7233 25.5406 19.8997 25.4145 20.0327C25.2883 20.1658 25.1159 20.2453 24.9328 20.255ZM24.9328 24.525H5.22281C5.03972 24.5153 4.86732 24.4358 4.74115 24.3027C4.61498 24.1697 4.54464 23.9933 4.54464 23.81C4.54464 23.6267 4.61498 23.4503 4.74115 23.3173C4.86732 23.1842 5.03972 23.1047 5.22281 23.095H24.9328C25.1224 23.095 25.3043 23.1703 25.4384 23.3044C25.5725 23.4385 25.6478 23.6204 25.6478 23.81C25.6478 23.9996 25.5725 24.1815 25.4384 24.3156C25.3043 24.4497 25.1224 24.525 24.9328 24.525ZM24.9328 28.794H5.22281C5.03318 28.794 4.85132 28.7187 4.71723 28.5846C4.58314 28.4505 4.50781 28.2686 4.50781 28.079C4.50781 27.8894 4.58314 27.7075 4.71723 27.5734C4.85132 27.4393 5.03318 27.364 5.22281 27.364H24.9328C25.1159 27.3737 25.2883 27.4532 25.4145 27.5863C25.5406 27.7193 25.611 27.8957 25.611 28.079C25.611 28.2623 25.5406 28.4387 25.4145 28.5717C25.2883 28.7048 25.1159 28.7843 24.9328 28.794Z" fill="#3EA0E6"/>
</g>
<rect x="9.75" y="33" width="30" height="14" rx="3.5" fill="#3EA0E6"/>
<path d="M15.9119 43.0625C15.7396 43.0625 15.5919 43.0019 15.4688 42.8807C15.3456 42.7595 15.285 42.6117 15.2869 42.4375C15.285 42.267 15.3456 42.1212 15.4688 42C15.5919 41.8788 15.7396 41.8182 15.9119 41.8182C16.0786 41.8182 16.2235 41.8788 16.3466 42C16.4716 42.1212 16.535 42.267 16.5369 42.4375C16.535 42.553 16.5047 42.6581 16.446 42.7528C16.3892 42.8475 16.3134 42.9233 16.2188 42.9801C16.1259 43.035 16.0237 43.0625 15.9119 43.0625ZM19.2158 43H17.2442V37.1818H19.2555C19.8332 37.1818 20.3294 37.2983 20.7442 37.5312C21.1608 37.7623 21.4809 38.0947 21.7044 38.5284C21.9279 38.9621 22.0396 39.4811 22.0396 40.0852C22.0396 40.6913 21.9269 41.2121 21.7016 41.6477C21.4781 42.0833 21.1552 42.4176 20.7328 42.6506C20.3124 42.8835 19.8067 43 19.2158 43ZM18.2982 42.0881H19.1646C19.5699 42.0881 19.908 42.0142 20.1788 41.8665C20.4497 41.7169 20.6533 41.4943 20.7896 41.1989C20.926 40.9015 20.9942 40.5303 20.9942 40.0852C20.9942 39.6402 20.926 39.2708 20.7896 38.9773C20.6533 38.6818 20.4516 38.4612 20.1845 38.3153C19.9194 38.1676 19.5898 38.0938 19.1959 38.0938H18.2982V42.0881ZM27.8399 40.0909C27.8399 40.7178 27.7225 41.2547 27.4876 41.7017C27.2547 42.1468 26.9365 42.4877 26.5331 42.7244C26.1316 42.9612 25.6761 43.0795 25.1666 43.0795C24.6571 43.0795 24.2007 42.9612 23.7973 42.7244C23.3958 42.4858 23.0776 42.1439 22.8428 41.6989C22.6098 41.2519 22.4933 40.7159 22.4933 40.0909C22.4933 39.464 22.6098 38.928 22.8428 38.483C23.0776 38.036 23.3958 37.6941 23.7973 37.4574C24.2007 37.2206 24.6571 37.1023 25.1666 37.1023C25.6761 37.1023 26.1316 37.2206 26.5331 37.4574C26.9365 37.6941 27.2547 38.036 27.4876 38.483C27.7225 38.928 27.8399 39.464 27.8399 40.0909ZM26.7803 40.0909C26.7803 39.6496 26.7111 39.2775 26.5729 38.9744C26.4365 38.6695 26.2471 38.4394 26.0047 38.2841C25.7623 38.1269 25.4829 38.0483 25.1666 38.0483C24.8503 38.0483 24.571 38.1269 24.3286 38.2841C24.0861 38.4394 23.8958 38.6695 23.7575 38.9744C23.6212 39.2775 23.553 39.6496 23.553 40.0909C23.553 40.5322 23.6212 40.9053 23.7575 41.2102C23.8958 41.5133 24.0861 41.7434 24.3286 41.9006C24.571 42.0559 24.8503 42.1335 25.1666 42.1335C25.4829 42.1335 25.7623 42.0559 26.0047 41.9006C26.2471 41.7434 26.4365 41.5133 26.5729 41.2102C26.7111 40.9053 26.7803 40.5322 26.7803 40.0909ZM33.4165 39.1449H32.354C32.3237 38.9706 32.2678 38.8163 32.1864 38.6818C32.1049 38.5455 32.0036 38.4299 31.8824 38.3352C31.7612 38.2405 31.6229 38.1695 31.4676 38.1222C31.3142 38.0729 31.1485 38.0483 30.9705 38.0483C30.6542 38.0483 30.3739 38.1278 30.1295 38.2869C29.8852 38.4441 29.6939 38.6752 29.5557 38.9801C29.4174 39.2831 29.3483 39.6534 29.3483 40.0909C29.3483 40.536 29.4174 40.911 29.5557 41.2159C29.6958 41.5189 29.8871 41.7481 30.1295 41.9034C30.3739 42.0568 30.6532 42.1335 30.9676 42.1335C31.1419 42.1335 31.3047 42.1108 31.4563 42.0653C31.6097 42.018 31.747 41.9489 31.8682 41.858C31.9913 41.767 32.0945 41.6553 32.1778 41.5227C32.2631 41.3902 32.3218 41.2386 32.354 41.0682L33.4165 41.0739C33.3767 41.3504 33.2905 41.6098 33.158 41.8523C33.0273 42.0947 32.8559 42.3087 32.6438 42.4943C32.4316 42.678 32.1835 42.822 31.8994 42.9261C31.6153 43.0284 31.3 43.0795 30.9534 43.0795C30.442 43.0795 29.9856 42.9612 29.5841 42.7244C29.1826 42.4877 28.8663 42.1458 28.6352 41.6989C28.4042 41.2519 28.2886 40.7159 28.2886 40.0909C28.2886 39.464 28.4051 38.928 28.6381 38.483C28.871 38.036 29.1883 37.6941 29.5898 37.4574C29.9913 37.2206 30.4458 37.1023 30.9534 37.1023C31.2773 37.1023 31.5784 37.1477 31.8568 37.2386C32.1352 37.3295 32.3833 37.4631 32.6011 37.6392C32.8189 37.8134 32.9979 38.0275 33.1381 38.2812C33.2801 38.5331 33.3729 38.821 33.4165 39.1449Z" fill="white"/>
</svg>
