<svg width="39" height="47" viewBox="0 0 39 47" fill="none" xmlns="http://www.w3.org/2000/svg">
<mask id="mask0_97_1904" style="mask-type:luminance" maskUnits="userSpaceOnUse" x="0" y="0" width="32" height="42">
<path d="M0 0H31.5V42H0V0Z" fill="white"/>
</mask>
<g mask="url(#mask0_97_1904)">
<path opacity="0.3" d="M26.665 9.402C25.6209 9.40121 24.6198 8.98623 23.8813 8.24813C23.1428 7.51002 22.7273 6.5091 22.726 5.465V8.76079e-07H5.14C4.46515 -0.000393237 3.79683 0.132188 3.17323 0.39017C2.54964 0.648152 1.98299 1.02648 1.50565 1.50353C1.02832 1.98059 0.649664 2.54702 0.391318 3.17046C0.132972 3.79391 -1.15081e-07 4.46215 0 5.137V36.105C-1.27835e-08 36.7797 0.132906 37.4478 0.391127 38.0711C0.649348 38.6944 1.02783 39.2607 1.50495 39.7378C1.98207 40.2148 2.54848 40.5932 3.17185 40.8513C3.79521 41.1094 4.46331 41.2421 5.138 41.242H26.251C26.9256 41.242 27.5936 41.1091 28.2168 40.851C28.8401 40.5928 29.4064 40.2144 29.8834 39.7374C30.3604 39.2604 30.7388 38.6941 30.997 38.0708C31.2551 37.4476 31.388 36.7796 31.388 36.105V9.402H26.664H26.665Z" fill="#018642"/>
<path d="M31.3898 9.402H26.6648C25.6207 9.40121 24.6196 8.98623 23.8811 8.24812C23.1426 7.51002 22.7271 6.5091 22.7258 5.465V0L31.3898 9.402ZM24.9328 15.984H5.22281C5.03972 15.9743 4.86732 15.8948 4.74115 15.7617C4.61498 15.6287 4.54464 15.4523 4.54464 15.269C4.54464 15.0857 4.61498 14.9093 4.74115 14.7763C4.86732 14.6432 5.03972 14.5637 5.22281 14.554H24.9328C25.1159 14.5637 25.2883 14.6432 25.4145 14.7763C25.5406 14.9093 25.611 15.0857 25.611 15.269C25.611 15.4523 25.5406 15.6287 25.4145 15.7617C25.2883 15.8948 25.1159 15.9743 24.9328 15.984ZM24.9328 20.255H5.22281C5.03972 20.2453 4.86732 20.1658 4.74115 20.0327C4.61498 19.8997 4.54464 19.7233 4.54464 19.54C4.54464 19.3567 4.61498 19.1803 4.74115 19.0473C4.86732 18.9142 5.03972 18.8347 5.22281 18.825H24.9328C25.1159 18.8347 25.2883 18.9142 25.4145 19.0473C25.5406 19.1803 25.611 19.3567 25.611 19.54C25.611 19.7233 25.5406 19.8997 25.4145 20.0327C25.2883 20.1658 25.1159 20.2453 24.9328 20.255ZM24.9328 24.525H5.22281C5.03972 24.5153 4.86732 24.4358 4.74115 24.3027C4.61498 24.1697 4.54464 23.9933 4.54464 23.81C4.54464 23.6267 4.61498 23.4503 4.74115 23.3173C4.86732 23.1842 5.03972 23.1047 5.22281 23.095H24.9328C25.1224 23.095 25.3043 23.1703 25.4384 23.3044C25.5725 23.4385 25.6478 23.6204 25.6478 23.81C25.6478 23.9996 25.5725 24.1815 25.4384 24.3156C25.3043 24.4497 25.1224 24.525 24.9328 24.525ZM24.9328 28.794H5.22281C5.03318 28.794 4.85132 28.7187 4.71723 28.5846C4.58314 28.4505 4.50781 28.2686 4.50781 28.079C4.50781 27.8894 4.58314 27.7075 4.71723 27.5734C4.85132 27.4393 5.03318 27.364 5.22281 27.364H24.9328C25.1159 27.3737 25.2883 27.4532 25.4145 27.5863C25.5406 27.7193 25.611 27.8957 25.611 28.079C25.611 28.2623 25.5406 28.4387 25.4145 28.5717C25.2883 28.7048 25.1159 28.7843 24.9328 28.794Z" fill="#018642"/>
</g>
<rect x="11.25" y="33" width="27" height="14" rx="3.5" fill="#018642"/>
<path d="M17.4119 43.0625C17.2396 43.0625 17.0919 43.0019 16.9688 42.8807C16.8456 42.7595 16.785 42.6117 16.7869 42.4375C16.785 42.267 16.8456 42.1212 16.9688 42C17.0919 41.8788 17.2396 41.8182 17.4119 41.8182C17.5786 41.8182 17.7235 41.8788 17.8466 42C17.9716 42.1212 18.035 42.267 18.0369 42.4375C18.035 42.553 18.0047 42.6581 17.946 42.7528C17.8892 42.8475 17.8134 42.9233 17.7188 42.9801C17.6259 43.035 17.5237 43.0625 17.4119 43.0625ZM19.6249 37.1818L20.9061 39.3125H20.9516L22.2385 37.1818H23.4402L21.6476 40.0909L23.4686 43H22.247L20.9516 40.8835H20.9061L19.6107 43H18.3947L20.2328 40.0909L18.4175 37.1818H19.6249ZM23.8676 43V37.1818H24.9216V42.1165H27.4841V43H23.8676ZM31.1608 38.7812C31.1343 38.5331 31.0225 38.34 30.8256 38.2017C30.6305 38.0634 30.3767 37.9943 30.0642 37.9943C29.8445 37.9943 29.6561 38.0275 29.4989 38.0938C29.3417 38.16 29.2214 38.25 29.1381 38.3636C29.0547 38.4773 29.0121 38.607 29.0102 38.7528C29.0102 38.8741 29.0377 38.9792 29.0926 39.0682C29.1494 39.1572 29.2261 39.233 29.3227 39.2955C29.4193 39.3561 29.5263 39.4072 29.6438 39.4489C29.7612 39.4905 29.8795 39.5256 29.9989 39.554L30.5443 39.6903C30.764 39.7415 30.9752 39.8106 31.1778 39.8977C31.3824 39.9848 31.5652 40.0947 31.7261 40.2273C31.889 40.3598 32.0178 40.5199 32.1125 40.7074C32.2072 40.8949 32.2545 41.1146 32.2545 41.3665C32.2545 41.7074 32.1674 42.0076 31.9932 42.267C31.8189 42.5246 31.567 42.7263 31.2375 42.8722C30.9098 43.0161 30.5131 43.0881 30.0472 43.0881C29.5945 43.0881 29.2015 43.018 28.8682 42.8778C28.5367 42.7377 28.2773 42.5331 28.0898 42.2642C27.9042 41.9953 27.8038 41.6676 27.7886 41.2812H28.8256C28.8407 41.4839 28.9032 41.6525 29.0131 41.7869C29.1229 41.9214 29.2659 42.0218 29.442 42.0881C29.6201 42.1544 29.8189 42.1875 30.0386 42.1875C30.2678 42.1875 30.4686 42.1534 30.6409 42.0852C30.8152 42.0152 30.9515 41.9186 31.05 41.7955C31.1485 41.6705 31.1987 41.5246 31.2006 41.358C31.1987 41.2064 31.1542 41.0814 31.067 40.983C30.9799 40.8826 30.8578 40.7992 30.7006 40.733C30.5453 40.6648 30.3634 40.6042 30.1551 40.5511L29.4932 40.3807C29.014 40.2576 28.6352 40.071 28.3568 39.821C28.0803 39.5691 27.942 39.2348 27.942 38.8182C27.942 38.4754 28.0348 38.1752 28.2205 37.9176C28.408 37.66 28.6627 37.4602 28.9847 37.3182C29.3066 37.1742 29.6712 37.1023 30.0784 37.1023C30.4913 37.1023 30.853 37.1742 31.1636 37.3182C31.4761 37.4602 31.7214 37.6581 31.8994 37.9119C32.0775 38.1638 32.1693 38.4536 32.175 38.7812H31.1608Z" fill="white"/>
</svg>
