<svg width="50" height="51" viewBox="0 0 50 51" fill="none" xmlns="http://www.w3.org/2000/svg">
<path d="M36.5625 41.4375C33.2812 43.7031 29.2969 45.0312 25 45.0312C23.0469 45.0312 21.0938 44.7188 19.2969 44.25C17.6562 43.7812 16.0937 43.0781 14.6094 42.2188C14.2187 41.9844 13.8281 41.75 13.3594 41.4375C12.7344 40.9688 12.5 40.1875 12.8125 39.5625L13.125 38.8594L15.0781 33.9375L17.0312 29.0156L18.9844 24.0938L20.9375 19.1719L22.8906 14.25L23.5156 12.6875C23.5938 12.6094 23.5937 12.4531 23.6719 12.375C23.75 12.2969 23.75 12.2188 23.8281 12.1406C24.4531 11.5156 25.5469 11.5156 26.0938 12.1406C26.1719 12.2188 26.25 12.2969 26.25 12.375C26.3281 12.4531 26.3281 12.5313 26.4062 12.6875L27.8125 16.2031L29.2188 19.6406L30.625 23.1563L32.0312 26.5938L33.4375 30.1094L34.8437 33.5469L36.25 37.0625L37.2656 39.7188C37.4219 40.1875 37.1875 40.9688 36.5625 41.4375Z" fill="#FF85CE"/>
<path d="M36.0938 36.8281L19.2969 44.25C17.6563 43.7812 16.0938 43.0781 14.6094 42.2188L34.6875 33.3906L36.0938 36.8281ZM33.3594 29.875L13.125 38.7812L15.0781 33.7812L31.9531 26.4375L33.3594 29.875ZM30.625 22.9219L17.0312 28.9375L18.9844 23.9375L29.2188 19.4844L30.625 22.9219ZM27.8906 15.9687L20.9375 19.0156L22.8906 14.0938L26.4844 12.5312L27.8906 15.9687Z" fill="#F7314A"/>
<path opacity="0.15" d="M24.7656 11.5156C24.4531 11.6719 24.2969 11.9844 24.1406 12.375L23.6719 14.0937L22.1875 19.4844L20.7031 24.7969L19.1406 30.1875L17.6562 35.5L16.1719 40.8906L15.9375 41.6719C15.7812 42.1406 15.8594 42.6094 16.0937 43C15.5469 42.7656 15.0781 42.4531 14.6094 42.2188C14.2187 41.9844 13.8281 41.75 13.3594 41.4375C12.7344 40.9688 12.5 40.1875 12.8125 39.5625L13.125 38.8594L15.0781 33.9375L17.0312 29.0156L18.9844 24.0938L20.9375 19.1719L22.8906 14.25L23.5156 12.6875C23.75 11.9062 24.2188 11.5938 24.7656 11.5156Z" fill="white"/>
<path opacity="0.21" d="M37.1875 39.4844L36.875 38.7813L34.9219 33.8594L32.9688 28.9375L31.0156 23.9375L29.0625 19.0156L27.1094 14.0937L26.4844 12.5312C26.4063 12.4531 26.4063 12.2969 26.3281 12.2187C26.3281 12.1406 26.25 12.1406 26.25 12.0625C26.25 12.0625 26.25 11.9844 26.1719 11.9844C25.9375 11.75 25.625 11.5938 25.3125 11.5156C25.4688 11.6719 25.625 11.8281 25.7813 12.0625C25.4688 12.2187 25.2344 12.2187 25 12.2187C24.6094 12.2187 24.2188 12.1406 23.8281 11.9844C23.75 12.0625 23.6719 12.1406 23.6719 12.2187C24.0625 12.375 24.5313 12.5312 25 12.5312C25.3125 12.5312 25.5469 12.4531 25.8594 12.375V12.4531L26.3281 14.1719L27.8125 19.5625L29.2969 24.875L30.7813 30.2656L32.2656 35.5781L33.75 40.9687L33.9844 41.75C34.1406 42.2187 34.0625 42.6875 33.8281 43.0781C34.375 42.8438 34.8438 42.5313 35.3125 42.2969C35.7031 42.0625 36.0938 41.8281 36.5625 41.5156C37.1875 40.9688 37.4219 40.1875 37.1875 39.4844Z" fill="#54032B"/>
<path d="M28.125 9.09375V9.25C28.0469 10.5 27.2656 11.5938 26.1719 11.9844C25.7812 12.1406 25.3906 12.2188 25 12.2188C24.6094 12.2188 24.2188 12.1406 23.8281 11.9844C22.7344 11.5156 21.9531 10.5 21.875 9.25V9.09375C21.875 7.375 23.2812 5.96875 25 5.96875C26.7188 5.96875 28.125 7.375 28.125 9.09375Z" fill="#FF85CE"/>
<path opacity="0.15" d="M23.0469 9.09375C23.0469 10.2656 23.5156 11.3594 24.1406 12.1406C22.8125 11.75 21.875 10.5781 21.875 9.09375C21.875 7.60938 22.8125 6.4375 24.2188 6.04688C23.5156 6.82812 23.0469 7.84375 23.0469 9.09375Z" fill="white"/>
<path opacity="0.21" d="M26.9531 9.09375C26.9531 10.2656 26.4844 11.3594 25.8594 12.1406C27.1875 11.75 28.125 10.5781 28.125 9.09375C28.125 7.60938 27.1875 6.4375 25.7812 6.04688C26.4844 6.82812 26.9531 7.84375 26.9531 9.09375Z" fill="#54032B"/>
</svg>
