<svg width="400" height="400" viewBox="0 0 400 400" fill="none" xmlns="http://www.w3.org/2000/svg">
<rect width="400" height="400" rx="200" fill="url(#paint0_radial_500_72)"/>
<path d="M96 136.43C149.925 136.43 193.627 180.144 193.627 234.056V311.93C139.702 311.93 96 268.216 96 214.303V136.43Z" fill="url(#paint1_linear_500_72)"/>
<path d="M304.83 88C250.906 88 207.204 131.714 207.204 185.627V263.5C261.129 263.5 304.83 219.786 304.83 165.874V88Z" fill="url(#paint2_linear_500_72)"/>
<path d="M142.516 104.846C142.579 104.362 143.228 104.246 143.455 104.678L147.389 112.164C147.464 112.308 147.606 112.406 147.767 112.427L156.153 113.516C156.637 113.579 156.753 114.228 156.321 114.455L148.835 118.389C148.691 118.464 148.593 118.605 148.572 118.767L147.482 127.153C147.42 127.637 146.771 127.753 146.544 127.321L142.61 119.835C142.534 119.691 142.393 119.593 142.232 119.572L133.846 118.482C133.362 118.42 133.246 117.771 133.678 117.544L141.164 113.61C141.308 113.534 141.406 113.393 141.427 113.232L142.516 104.846Z" fill="white"/>
<path d="M242.163 281.021C242.403 280.596 243.048 280.731 243.097 281.216L243.945 289.63C243.961 289.792 244.055 289.936 244.197 290.016L251.566 294.163C251.992 294.403 251.857 295.048 251.371 295.097L242.957 295.945C242.795 295.961 242.651 296.055 242.572 296.197L238.424 303.566C238.184 303.992 237.54 303.857 237.491 303.371L236.643 294.957C236.627 294.795 236.532 294.651 236.391 294.572L229.021 290.424C228.596 290.184 228.731 289.54 229.216 289.491L237.63 288.643C237.792 288.627 237.936 288.532 238.016 288.391L242.163 281.021Z" fill="white"/>
<defs>
<radialGradient id="paint0_radial_500_72" cx="0" cy="0" r="1" gradientUnits="userSpaceOnUse" gradientTransform="translate(200 69) rotate(90) scale(458)">
<stop offset="0.0281166" stop-color="#101828"/>
<stop offset="0.463988" stop-color="#12304E"/>
<stop offset="0.580193" stop-color="#3D7DBD"/>
<stop offset="0.751437" stop-color="#C292DE"/>
</radialGradient>
<linearGradient id="paint1_linear_500_72" x1="96.0002" y1="329.37" x2="170.611" y2="97.1088" gradientUnits="userSpaceOnUse">
<stop stop-color="#87C7FF"/>
<stop offset="1" stop-color="#D2A7FF"/>
</linearGradient>
<linearGradient id="paint2_linear_500_72" x1="207.204" y1="280.941" x2="281.815" y2="48.6792" gradientUnits="userSpaceOnUse">
<stop stop-color="#87C7FF"/>
<stop offset="1" stop-color="#D2A7FF"/>
</linearGradient>
</defs>
</svg>
