<svg xmlns="http://www.w3.org/2000/svg" viewBox="0 0 24 24" id="folder"><g><g><g><path fill="none" stroke="#303c42" stroke-linecap="round" stroke-linejoin="round" d="M20.5 8.5V7A1.5 1.5 0 0 0 19 5.5H9.5l-2-2H2A1.5 1.5 0 0 0 .5 5v14a1.49 1.49 0 0 0 .11.55m0 .01A1.5 1.5 0 0 0 2 20.5h17a1.5 1.5 0 0 0 1.45-1.14"></path></g><path fill="none" stroke="#303c42" stroke-linecap="round" stroke-linejoin="round" d="m20.46 19.36 3-8.9h0a1.48 1.48 0 0 0 .04-.46A1.5 1.5 0 0 0 22 8.5H5a1.5 1.5 0 0 0-1.46 1.17h0L.61 19.56"></path></g></g></svg>