<svg width="50" height="51" viewBox="0 0 50 51" fill="none" xmlns="http://www.w3.org/2000/svg">
<path d="M48.0234 30.6016L45.6797 32.1641C43.9531 32.1641 42.5547 30.7656 42.5547 29.0391L44.8984 27.4766C44.8984 28.3438 45.25 29.125 45.8125 29.6875C46.375 30.25 47.1562 30.6016 48.0234 30.6016Z" fill="#FF31E7"/>
<path d="M44.5312 41.125C45.3942 41.125 46.0938 40.4254 46.0938 39.5625C46.0938 38.6996 45.3942 38 44.5312 38C43.6683 38 42.9688 38.6996 42.9688 39.5625C42.9688 40.4254 43.6683 41.125 44.5312 41.125Z" fill="#8030FE"/>
<path d="M45.1406 6.38281C45.4308 6.67327 45.7755 6.90354 46.1549 7.0604C46.5343 7.21726 46.941 7.29762 47.3516 7.29688C46.4844 7.29688 45.7031 7.64844 45.1406 8.21094C44.5781 8.78125 44.2266 9.5625 44.2266 10.4219C44.2266 8.69531 42.8281 7.29688 41.1016 7.29688C41.9688 7.29688 42.75 6.94531 43.3125 6.38281C43.875 5.8125 44.2266 5.03125 44.2266 4.17188C44.2266 5.03125 44.5781 5.8125 45.1406 6.38281ZM40.625 33.3125L29.5547 37.8672C26.3906 25.0234 19.6016 16.6719 15.6016 12.6641L16.4063 10.6562C16.4063 10.6562 32.8125 17.6875 40.625 33.3125Z" fill="#8030FE"/>
<path d="M29.5547 37.8672L22.3906 40.8203C19.6953 32.1797 15.4297 25.8438 11.9688 21.7578L15.6016 12.6641C19.6016 16.6719 26.3906 25.0234 29.5547 37.8672Z" fill="#FFD91F"/>
<path d="M26.5625 13C27.4254 13 28.125 12.3004 28.125 11.4375C28.125 10.5746 27.4254 9.875 26.5625 9.875C25.6996 9.875 25 10.5746 25 11.4375C25 12.3004 25.6996 13 26.5625 13Z" fill="#FF881D"/>
<path d="M22.3906 40.8203L14.0938 44.2344C12.4653 40.0362 10.324 36.0555 7.71875 32.3828L11.9687 21.7578C15.4297 25.8438 19.6953 32.1797 22.3906 40.8203Z" fill="#FF76DF"/>
<path d="M14.0938 44.2344L5.55469 47.75C4.82813 46.2109 4.07031 44.7812 3.28906 43.4531L7.71875 32.3828C9.94531 35.5156 12.2422 39.4687 14.0938 44.2344Z" fill="#FFD91F"/>
<path d="M40.625 33.3133C37.7164 27.4953 33.6164 22.8711 29.6149 19.3555C28.3914 21.7547 26.8781 23.9586 25.143 25.9828C27.062 29.7633 28.5422 33.751 29.5547 37.868L40.625 33.3133Z" fill="#6C1EC6"/>
<path d="M18.7539 31.9406C20.2201 34.7894 21.4367 37.7599 22.3898 40.8188L29.5539 37.8656C28.5417 33.7485 27.0615 29.7608 25.1422 25.9805C23.257 28.1805 21.1047 30.1648 18.7539 31.9406Z" fill="#FFBC00"/>
<path d="M14.0937 44.2336L22.3906 40.8195C21.4373 37.7607 20.2208 34.7902 18.7547 31.9414C16.2383 33.843 13.4976 35.5063 10.6203 36.9445C11.9556 39.2856 13.1166 41.7219 14.0937 44.2336Z" fill="#FF31E7"/>
<path d="M3.28906 43.4531C4.07031 44.7812 4.82813 46.2109 5.55469 47.75L14.0938 44.2344C13.1168 41.7228 11.9558 39.2868 10.6203 36.9461C8.75192 37.878 6.83865 38.717 4.8875 39.4602L3.28906 43.4531ZM11.7188 5.96875L9.375 7.53125C7.64844 7.53125 6.25 6.13281 6.25 4.40625L8.59375 2.84375C8.59375 3.70312 8.94531 4.48437 9.50781 5.05469C10.0781 5.61719 10.8594 5.96875 11.7188 5.96875Z" fill="#FFBC00"/>
<path d="M5.55469 47.75L0.78125 49.7188L3.28906 43.4531C4.07031 44.7812 4.82812 46.2109 5.55469 47.75Z" fill="#FF31E7"/>
<path d="M27.4883 31.2625C28.3122 33.4192 29.0023 35.6247 29.5547 37.8664L40.625 33.3117C38.7625 29.5867 36.4094 26.3555 33.9086 23.5859C31.9672 26.3046 29.8208 28.871 27.4883 31.2625Z" fill="#4E0EAA"/>
<path d="M21.0399 37C21.5363 38.2561 21.9869 39.5299 22.3906 40.8188L29.5547 37.8656C29.0024 35.6239 28.3122 33.4184 27.4883 31.2617C25.4788 33.3262 23.3238 35.2439 21.0399 37Z" fill="#FF881D"/>
<path d="M14.0938 44.2328L22.3906 40.8188C21.9868 39.5299 21.5362 38.2561 21.0399 37C18.5445 38.9125 15.9117 40.6023 13.1688 42.0141C13.4859 42.7352 13.7977 43.4695 14.0938 44.2328Z" fill="#E515E1"/>
<path d="M5.55469 47.75L14.0938 44.2344C13.8019 43.488 13.4935 42.7482 13.1688 42.0156C10.3461 43.468 7.40859 44.6219 4.38672 45.4234C4.79445 46.1896 5.18388 46.9653 5.55469 47.75Z" fill="#FF881D"/>
<path d="M0.78125 49.7172L5.55469 47.7484C5.18372 46.9638 4.79429 46.1881 4.38672 45.4219C3.69698 45.6041 3.00246 45.7677 2.30391 45.9125L0.78125 49.7172Z" fill="#E515E1"/>
<path d="M35.9375 17.6867C35.7905 17.6865 35.6465 17.6448 35.5221 17.5665C35.3978 17.4881 35.298 17.3762 35.2344 17.2437C35.1707 17.1112 35.1458 16.9634 35.1623 16.8173C35.1789 16.6713 35.2364 16.5328 35.3281 16.418C35.4648 16.2469 38.7359 12.2188 42.9687 12.2188C43.1759 12.2188 43.3747 12.3011 43.5212 12.4476C43.6677 12.5941 43.75 12.7928 43.75 13C43.75 13.2072 43.6677 13.4059 43.5212 13.5524C43.3747 13.6989 43.1759 13.7812 42.9687 13.7812C39.493 13.7812 36.5758 17.3586 36.5469 17.3953C36.4736 17.4864 36.3808 17.5598 36.2753 17.6103C36.1698 17.6607 36.0544 17.6868 35.9375 17.6867Z" fill="#FFBC00"/>
<path d="M45.3125 22.203C45.2099 22.2031 45.1083 22.1829 45.0135 22.1437C44.9187 22.1044 44.8326 22.0468 44.7602 21.9741C42.8141 20.0288 40.943 20.578 40.8648 20.603C40.4555 20.728 40.0172 20.5046 39.8859 20.0975C39.7547 19.6905 39.9719 19.2538 40.3781 19.1186C40.493 19.0788 43.2102 18.2147 45.8648 20.8694C45.9745 20.9785 46.0492 21.1177 46.0795 21.2694C46.1099 21.4211 46.0945 21.5783 46.0353 21.7212C45.9761 21.8641 45.8758 21.9862 45.7471 22.0719C45.6184 22.1577 45.4672 22.2034 45.3125 22.203ZM23.4297 7.84363C23.2236 7.84385 23.0258 7.76238 22.8797 7.61707L21.8641 6.60926C21.6579 6.40186 21.3784 6.28399 21.0859 6.28113C20.7336 6.28147 20.3847 6.21182 20.0595 6.07624C19.7342 5.94065 19.4392 5.74182 19.1914 5.49129L18.1898 4.48973C18.1173 4.41719 18.0598 4.33108 18.0205 4.23631C17.9813 4.14154 17.9611 4.03996 17.9611 3.93738C17.9611 3.8348 17.9813 3.73323 18.0205 3.63846C18.0598 3.54368 18.1173 3.45757 18.1898 3.38504C18.2624 3.3125 18.3485 3.25497 18.4433 3.21571C18.538 3.17645 18.6396 3.15625 18.7422 3.15625C18.8448 3.15625 18.9463 3.17645 19.0411 3.21571C19.1359 3.25497 19.222 3.3125 19.2945 3.38504L20.3023 4.39285C20.507 4.60223 20.7906 4.71863 21.0859 4.71863C21.7836 4.71863 22.4695 5.00379 22.9664 5.50223L23.9797 6.50769C24.0896 6.61669 24.1646 6.75587 24.1953 6.90757C24.226 7.05928 24.2109 7.21668 24.152 7.3598C24.093 7.50292 23.9929 7.62532 23.8643 7.71146C23.7357 7.7976 23.5845 7.8436 23.4297 7.84363Z" fill="#5BDDC4"/>
<path d="M31.718 10.6577C31.5375 10.6577 31.3626 10.5951 31.2231 10.4805C31.0836 10.366 30.9882 10.2066 30.9531 10.0295L30.6562 8.54517C30.5148 7.82056 30.6144 7.06958 30.9398 6.40689C31.1125 6.05034 31.1659 5.64769 31.0922 5.25845L30.7969 3.78033C30.7568 3.57742 30.7988 3.3669 30.9137 3.19491C31.0286 3.02293 31.207 2.90353 31.4098 2.86289C31.6126 2.82225 31.8232 2.86368 31.9955 2.97811C32.1678 3.09253 32.2877 3.27061 32.3289 3.4733L32.6258 4.95767C32.6672 5.17564 32.6883 5.39126 32.6883 5.60298C32.6883 6.13501 32.5711 6.63892 32.3406 7.10064C32.1687 7.45064 32.114 7.85689 32.1898 8.24048L32.4859 9.72251C32.5087 9.83606 32.506 9.95326 32.478 10.0656C32.4499 10.178 32.3972 10.2827 32.3237 10.3722C32.2502 10.4617 32.1578 10.5338 32.053 10.5832C31.9482 10.6325 31.8338 10.658 31.718 10.6577Z" fill="#FFBC00"/>
<path d="M17.6086 17.7895C17.0742 17.4137 15.9672 17.5028 15.4867 18.6293C14.8836 20.0442 16.7367 19.702 17.461 19.0824C18.0789 18.5543 17.9875 18.0559 17.6086 17.7895ZM15.5336 19.8762C15.2664 19.6879 14.7133 19.7324 14.4727 20.2957C14.1711 21.0035 15.0977 20.8317 15.4594 20.5223C15.7688 20.2582 15.7235 20.009 15.5336 19.8762Z" fill="#FFF0A5"/>
</svg>
