<svg width="43" height="43" viewBox="0 0 43 43" fill="none" xmlns="http://www.w3.org/2000/svg">
<g clip-path="url(#clip0_9075_33003)">
<path d="M12.5775 37.5119C11.359 38.7304 6.69029 40.6554 3.33562 41.9363C1.91292 42.4795 0.520211 41.0869 1.06342 39.6641C2.34427 36.3095 4.26927 31.6407 5.4878 30.4222C7.44657 28.4634 10.6187 28.4634 12.5775 30.4222C14.5363 32.381 14.5363 35.5532 12.5775 37.5119Z" fill="#FFCE29"/>
<path d="M28.0636 38.2128L23.7633 42.5131C22.8574 43.4189 21.3105 43.0022 20.9823 41.7638L16.8466 26.1599L1.23777 22.0202C-0.000412175 21.6918 -0.416975 20.145 0.488797 19.2392L4.78938 14.9386C5.86388 13.8641 7.3326 13.2783 8.85162 13.3183L24.9107 13.7414L29.2608 18.0915L29.6839 34.1506C29.7239 35.6696 29.1381 37.1383 28.0636 38.2128Z" fill="#F96464"/>
<path opacity="0.4" d="M1.99059 19.3572L4.07953 17.264C4.34728 16.9956 4.78198 16.9953 5.05014 17.2632C5.31814 17.531 5.31847 17.9652 5.0509 18.2333L2.96195 20.3265C2.69421 20.5949 2.25951 20.5952 1.99135 20.3273C1.72335 20.0596 1.72302 19.6253 1.99059 19.3572Z" fill="white"/>
<path opacity="0.08" d="M28.0614 38.2146L23.7629 42.5132C22.8572 43.4189 21.3111 43.0049 20.9812 41.7628L20.9036 41.4653C21.3694 41.517 21.861 41.3683 22.2395 40.9898L26.5381 36.6912C27.6152 35.6141 28.1973 34.1457 28.1585 32.6256L27.7348 16.5664L29.2615 18.0931L29.6852 34.1522C29.724 35.6723 29.1385 37.1376 28.0614 38.2146Z" fill="black"/>
<path d="M15.7472 33.5937C20.8437 33.1487 28.1598 29.0251 34.7718 22.413C41.3819 15.803 42.7554 7.30803 42.9946 2.91716C43.0843 1.27039 41.7278 -0.0858687 40.081 0.00424652C35.6909 0.244442 27.1981 1.61977 20.5883 8.22959C13.9762 14.8417 9.85263 22.1577 9.40659 27.2531L15.7472 33.5937Z" fill="#F2F0F0"/>
<path opacity="0.4" d="M12.9107 20.2775C12.3832 21.2858 11.9333 22.2724 11.5721 23.2236C11.4771 23.4739 11.5427 23.7553 11.732 23.9446L11.7341 23.9467C12.0859 24.2986 12.6781 24.1674 12.8542 23.702C13.1947 22.8018 13.6199 21.8659 14.1207 20.9073C14.2593 20.642 14.2138 20.3171 14.0021 20.1055C13.6747 19.7781 13.1253 19.8672 12.9107 20.2775Z" fill="white"/>
<path d="M40.4375 13.9806C42.2912 9.67731 42.8509 5.55587 42.9946 2.91716C43.0843 1.2704 41.7278 -0.0858687 40.0811 0.00424652C37.4429 0.148532 33.3225 0.709211 29.0201 2.56333L40.4375 13.9806Z" fill="#F96464"/>
<path d="M15.889 35.3006C15.4564 35.7333 14.755 35.7333 14.3224 35.3006L7.70186 28.6801C7.26926 28.2475 7.26926 27.5461 7.70186 27.1135C8.13447 26.6809 8.83582 26.6809 9.26842 27.1135L15.889 33.7341C16.3215 34.1667 16.3215 34.868 15.889 35.3006Z" fill="#6D6D6D"/>
<path d="M15.8263 30.2237C14.8583 31.1918 6.91535 37.7722 6.07534 36.9322C5.22869 36.0855 11.809 28.1426 12.7771 27.1744C13.7528 26.1988 16.6754 24.6386 17.5222 25.4853C18.3622 26.3254 16.8021 29.2481 15.8263 30.2237Z" fill="#F96464"/>
<path d="M30.9526 21.1229C34.2251 19.3833 35.4678 15.3202 33.7282 12.0477C31.9886 8.77515 27.9255 7.53246 24.653 9.27206C21.3804 11.0117 20.1378 15.0748 21.8774 18.3473C23.617 21.6198 27.6801 22.8625 30.9526 21.1229Z" fill="#6D6D6D"/>
<path d="M30.2166 19.7382C32.7244 18.4052 33.6767 15.2915 32.3436 12.7836C31.0105 10.2758 27.8968 9.32347 25.389 10.6566C22.8812 11.9896 21.9289 15.1033 23.262 17.6112C24.5951 20.119 27.7088 21.0713 30.2166 19.7382Z" fill="#66D5F2"/>
<path opacity="0.08" d="M34.773 22.4144C28.1617 29.0257 20.8421 33.1496 15.7478 33.5927L14.6255 32.4704C19.7198 32.0273 27.0394 27.9033 33.6506 21.2921C40.2586 14.684 41.6332 6.18704 41.8726 1.79466C41.9016 1.26741 41.7788 0.762914 41.5459 0.335938C42.4516 0.821115 43.0532 1.8044 42.995 2.91703C42.7557 7.30941 41.381 15.8064 34.773 22.4144Z" fill="black"/>
</g>
<defs>
<clipPath id="clip0_9075_33003">
<rect width="43" height="43" fill="white"/>
</clipPath>
</defs>
</svg>
